<mxfile host="app.diagrams.net" agent="Mozilla/5.0 (Windows NT 10.0; Win64; x64) AppleWebKit/537.36 (KHTML, like Gecko) Chrome/131.0.0.0 Safari/537.36" version="26.0.6">
  <diagram name="‫עמוד-1‬" id="e7YhaK8nepCiTh6V1VDP">
    <mxGraphModel dx="1434" dy="746" grid="1" gridSize="10" guides="1" tooltips="1" connect="1" arrows="1" fold="1" page="1" pageScale="1" pageWidth="827" pageHeight="1169" math="0" shadow="0">
      <root>
        <mxCell id="0" />
        <mxCell id="1" parent="0" />
        <mxCell id="Ow-B_Td2tTApioHb9MF5-1" value="" style="edgeStyle=orthogonalEdgeStyle;rounded=0;orthogonalLoop=1;jettySize=auto;html=1;" edge="1" parent="1" source="Ow-B_Td2tTApioHb9MF5-2" target="Ow-B_Td2tTApioHb9MF5-3">
          <mxGeometry relative="1" as="geometry" />
        </mxCell>
        <mxCell id="Ow-B_Td2tTApioHb9MF5-2" value="start" style="ellipse;whiteSpace=wrap;html=1;" vertex="1" parent="1">
          <mxGeometry x="170" y="240" width="120" height="80" as="geometry" />
        </mxCell>
        <mxCell id="Ow-B_Td2tTApioHb9MF5-3" value="" style="verticalLabelPosition=bottom;verticalAlign=top;html=1;shape=card;whiteSpace=wrap;size=20;arcSize=12;" vertex="1" parent="1">
          <mxGeometry x="180" y="350" width="100" height="60" as="geometry" />
        </mxCell>
        <mxCell id="Ow-B_Td2tTApioHb9MF5-13" value="" style="edgeStyle=orthogonalEdgeStyle;rounded=0;orthogonalLoop=1;jettySize=auto;html=1;" edge="1" parent="1" source="Ow-B_Td2tTApioHb9MF5-5" target="Ow-B_Td2tTApioHb9MF5-10">
          <mxGeometry relative="1" as="geometry" />
        </mxCell>
        <mxCell id="Ow-B_Td2tTApioHb9MF5-5" value="param1" style="text;html=1;align=center;verticalAlign=middle;whiteSpace=wrap;rounded=0;" vertex="1" parent="1">
          <mxGeometry x="200" y="365" width="60" height="30" as="geometry" />
        </mxCell>
        <mxCell id="Ow-B_Td2tTApioHb9MF5-6" value="" style="edgeStyle=orthogonalEdgeStyle;rounded=0;orthogonalLoop=1;jettySize=auto;html=1;" edge="1" parent="1" target="Ow-B_Td2tTApioHb9MF5-8">
          <mxGeometry relative="1" as="geometry">
            <mxPoint x="230" y="600" as="sourcePoint" />
          </mxGeometry>
        </mxCell>
        <mxCell id="Ow-B_Td2tTApioHb9MF5-8" value="stop" style="ellipse;whiteSpace=wrap;html=1;" vertex="1" parent="1">
          <mxGeometry x="170" y="630" width="120" height="80" as="geometry" />
        </mxCell>
        <mxCell id="Ow-B_Td2tTApioHb9MF5-12" value="" style="edgeStyle=orthogonalEdgeStyle;rounded=0;orthogonalLoop=1;jettySize=auto;html=1;" edge="1" parent="1" source="Ow-B_Td2tTApioHb9MF5-9" target="Ow-B_Td2tTApioHb9MF5-11">
          <mxGeometry relative="1" as="geometry" />
        </mxCell>
        <mxCell id="Ow-B_Td2tTApioHb9MF5-9" value="" style="verticalLabelPosition=bottom;verticalAlign=top;html=1;shape=card;whiteSpace=wrap;size=20;arcSize=12;" vertex="1" parent="1">
          <mxGeometry x="180" y="440" width="100" height="60" as="geometry" />
        </mxCell>
        <mxCell id="Ow-B_Td2tTApioHb9MF5-10" value="param2" style="text;html=1;align=center;verticalAlign=middle;whiteSpace=wrap;rounded=0;" vertex="1" parent="1">
          <mxGeometry x="200" y="455" width="60" height="30" as="geometry" />
        </mxCell>
        <mxCell id="Ow-B_Td2tTApioHb9MF5-11" value="param1 + param2" style="shape=document;whiteSpace=wrap;html=1;boundedLbl=1;" vertex="1" parent="1">
          <mxGeometry x="160" y="520" width="120" height="80" as="geometry" />
        </mxCell>
      </root>
    </mxGraphModel>
  </diagram>
</mxfile>
